<?xml version="1.0" encoding="utf-8"?>
<svg xmlns="http://www.w3.org/2000/svg" xmlns:xlink="http://www.w3.org/1999/xlink" style="margin: auto; background: none; display: block; shape-rendering: auto;" width="185px" height="185px" viewBox="0 0 100 100" preserveAspectRatio="xMidYMid">
<g transform="rotate(0 50 50)">
  <rect x="46" y="27" rx="4" ry="6" width="8" height="12" fill="#1d0303">
    <animate attributeName="opacity" values="1;0" keyTimes="0;1" dur="1.1627906976744187s" begin="-1.127554615926709s" repeatCount="indefinite"></animate>
  </rect>
</g><g transform="rotate(10.909090909090908 50 50)">
  <rect x="46" y="27" rx="4" ry="6" width="8" height="12" fill="#56210b">
    <animate attributeName="opacity" values="1;0" keyTimes="0;1" dur="1.1627906976744187s" begin="-1.0923185341789994s" repeatCount="indefinite"></animate>
  </rect>
</g><g transform="rotate(21.818181818181817 50 50)">
  <rect x="46" y="27" rx="4" ry="6" width="8" height="12" fill="#d6750b">
    <animate attributeName="opacity" values="1;0" keyTimes="0;1" dur="1.1627906976744187s" begin="-1.0570824524312896s" repeatCount="indefinite"></animate>
  </rect>
</g><g transform="rotate(32.72727272727273 50 50)">
  <rect x="46" y="27" rx="4" ry="6" width="8" height="12" fill="#f7f9f0">
    <animate attributeName="opacity" values="1;0" keyTimes="0;1" dur="1.1627906976744187s" begin="-1.02184637068358s" repeatCount="indefinite"></animate>
  </rect>
</g><g transform="rotate(43.63636363636363 50 50)">
  <rect x="46" y="27" rx="4" ry="6" width="8" height="12" fill="#e7c385">
    <animate attributeName="opacity" values="1;0" keyTimes="0;1" dur="1.1627906976744187s" begin="-0.9866102889358703s" repeatCount="indefinite"></animate>
  </rect>
</g><g transform="rotate(54.54545454545455 50 50)">
  <rect x="46" y="27" rx="4" ry="6" width="8" height="12" fill="#1d0303">
    <animate attributeName="opacity" values="1;0" keyTimes="0;1" dur="1.1627906976744187s" begin="-0.9513742071881607s" repeatCount="indefinite"></animate>
  </rect>
</g><g transform="rotate(65.45454545454545 50 50)">
  <rect x="46" y="27" rx="4" ry="6" width="8" height="12" fill="#56210b">
    <animate attributeName="opacity" values="1;0" keyTimes="0;1" dur="1.1627906976744187s" begin="-0.916138125440451s" repeatCount="indefinite"></animate>
  </rect>
</g><g transform="rotate(76.36363636363636 50 50)">
  <rect x="46" y="27" rx="4" ry="6" width="8" height="12" fill="#d6750b">
    <animate attributeName="opacity" values="1;0" keyTimes="0;1" dur="1.1627906976744187s" begin="-0.8809020436927414s" repeatCount="indefinite"></animate>
  </rect>
</g><g transform="rotate(87.27272727272727 50 50)">
  <rect x="46" y="27" rx="4" ry="6" width="8" height="12" fill="#f7f9f0">
    <animate attributeName="opacity" values="1;0" keyTimes="0;1" dur="1.1627906976744187s" begin="-0.8456659619450317s" repeatCount="indefinite"></animate>
  </rect>
</g><g transform="rotate(98.18181818181819 50 50)">
  <rect x="46" y="27" rx="4" ry="6" width="8" height="12" fill="#e7c385">
    <animate attributeName="opacity" values="1;0" keyTimes="0;1" dur="1.1627906976744187s" begin="-0.8104298801973221s" repeatCount="indefinite"></animate>
  </rect>
</g><g transform="rotate(109.0909090909091 50 50)">
  <rect x="46" y="27" rx="4" ry="6" width="8" height="12" fill="#1d0303">
    <animate attributeName="opacity" values="1;0" keyTimes="0;1" dur="1.1627906976744187s" begin="-0.7751937984496124s" repeatCount="indefinite"></animate>
  </rect>
</g><g transform="rotate(120 50 50)">
  <rect x="46" y="27" rx="4" ry="6" width="8" height="12" fill="#56210b">
    <animate attributeName="opacity" values="1;0" keyTimes="0;1" dur="1.1627906976744187s" begin="-0.7399577167019028s" repeatCount="indefinite"></animate>
  </rect>
</g><g transform="rotate(130.9090909090909 50 50)">
  <rect x="46" y="27" rx="4" ry="6" width="8" height="12" fill="#d6750b">
    <animate attributeName="opacity" values="1;0" keyTimes="0;1" dur="1.1627906976744187s" begin="-0.7047216349541932s" repeatCount="indefinite"></animate>
  </rect>
</g><g transform="rotate(141.8181818181818 50 50)">
  <rect x="46" y="27" rx="4" ry="6" width="8" height="12" fill="#f7f9f0">
    <animate attributeName="opacity" values="1;0" keyTimes="0;1" dur="1.1627906976744187s" begin="-0.6694855532064835s" repeatCount="indefinite"></animate>
  </rect>
</g><g transform="rotate(152.72727272727272 50 50)">
  <rect x="46" y="27" rx="4" ry="6" width="8" height="12" fill="#e7c385">
    <animate attributeName="opacity" values="1;0" keyTimes="0;1" dur="1.1627906976744187s" begin="-0.6342494714587739s" repeatCount="indefinite"></animate>
  </rect>
</g><g transform="rotate(163.63636363636363 50 50)">
  <rect x="46" y="27" rx="4" ry="6" width="8" height="12" fill="#1d0303">
    <animate attributeName="opacity" values="1;0" keyTimes="0;1" dur="1.1627906976744187s" begin="-0.5990133897110641s" repeatCount="indefinite"></animate>
  </rect>
</g><g transform="rotate(174.54545454545453 50 50)">
  <rect x="46" y="27" rx="4" ry="6" width="8" height="12" fill="#56210b">
    <animate attributeName="opacity" values="1;0" keyTimes="0;1" dur="1.1627906976744187s" begin="-0.5637773079633545s" repeatCount="indefinite"></animate>
  </rect>
</g><g transform="rotate(185.45454545454547 50 50)">
  <rect x="46" y="27" rx="4" ry="6" width="8" height="12" fill="#d6750b">
    <animate attributeName="opacity" values="1;0" keyTimes="0;1" dur="1.1627906976744187s" begin="-0.5285412262156448s" repeatCount="indefinite"></animate>
  </rect>
</g><g transform="rotate(196.36363636363637 50 50)">
  <rect x="46" y="27" rx="4" ry="6" width="8" height="12" fill="#f7f9f0">
    <animate attributeName="opacity" values="1;0" keyTimes="0;1" dur="1.1627906976744187s" begin="-0.49330514446793516s" repeatCount="indefinite"></animate>
  </rect>
</g><g transform="rotate(207.27272727272728 50 50)">
  <rect x="46" y="27" rx="4" ry="6" width="8" height="12" fill="#e7c385">
    <animate attributeName="opacity" values="1;0" keyTimes="0;1" dur="1.1627906976744187s" begin="-0.4580690627202255s" repeatCount="indefinite"></animate>
  </rect>
</g><g transform="rotate(218.1818181818182 50 50)">
  <rect x="46" y="27" rx="4" ry="6" width="8" height="12" fill="#1d0303">
    <animate attributeName="opacity" values="1;0" keyTimes="0;1" dur="1.1627906976744187s" begin="-0.42283298097251587s" repeatCount="indefinite"></animate>
  </rect>
</g><g transform="rotate(229.0909090909091 50 50)">
  <rect x="46" y="27" rx="4" ry="6" width="8" height="12" fill="#56210b">
    <animate attributeName="opacity" values="1;0" keyTimes="0;1" dur="1.1627906976744187s" begin="-0.3875968992248062s" repeatCount="indefinite"></animate>
  </rect>
</g><g transform="rotate(240 50 50)">
  <rect x="46" y="27" rx="4" ry="6" width="8" height="12" fill="#d6750b">
    <animate attributeName="opacity" values="1;0" keyTimes="0;1" dur="1.1627906976744187s" begin="-0.3523608174770966s" repeatCount="indefinite"></animate>
  </rect>
</g><g transform="rotate(250.9090909090909 50 50)">
  <rect x="46" y="27" rx="4" ry="6" width="8" height="12" fill="#f7f9f0">
    <animate attributeName="opacity" values="1;0" keyTimes="0;1" dur="1.1627906976744187s" begin="-0.31712473572938693s" repeatCount="indefinite"></animate>
  </rect>
</g><g transform="rotate(261.8181818181818 50 50)">
  <rect x="46" y="27" rx="4" ry="6" width="8" height="12" fill="#e7c385">
    <animate attributeName="opacity" values="1;0" keyTimes="0;1" dur="1.1627906976744187s" begin="-0.28188865398167723s" repeatCount="indefinite"></animate>
  </rect>
</g><g transform="rotate(272.72727272727275 50 50)">
  <rect x="46" y="27" rx="4" ry="6" width="8" height="12" fill="#1d0303">
    <animate attributeName="opacity" values="1;0" keyTimes="0;1" dur="1.1627906976744187s" begin="-0.24665257223396758s" repeatCount="indefinite"></animate>
  </rect>
</g><g transform="rotate(283.6363636363636 50 50)">
  <rect x="46" y="27" rx="4" ry="6" width="8" height="12" fill="#56210b">
    <animate attributeName="opacity" values="1;0" keyTimes="0;1" dur="1.1627906976744187s" begin="-0.21141649048625794s" repeatCount="indefinite"></animate>
  </rect>
</g><g transform="rotate(294.54545454545456 50 50)">
  <rect x="46" y="27" rx="4" ry="6" width="8" height="12" fill="#d6750b">
    <animate attributeName="opacity" values="1;0" keyTimes="0;1" dur="1.1627906976744187s" begin="-0.1761804087385483s" repeatCount="indefinite"></animate>
  </rect>
</g><g transform="rotate(305.45454545454544 50 50)">
  <rect x="46" y="27" rx="4" ry="6" width="8" height="12" fill="#f7f9f0">
    <animate attributeName="opacity" values="1;0" keyTimes="0;1" dur="1.1627906976744187s" begin="-0.14094432699083861s" repeatCount="indefinite"></animate>
  </rect>
</g><g transform="rotate(316.3636363636364 50 50)">
  <rect x="46" y="27" rx="4" ry="6" width="8" height="12" fill="#e7c385">
    <animate attributeName="opacity" values="1;0" keyTimes="0;1" dur="1.1627906976744187s" begin="-0.10570824524312897s" repeatCount="indefinite"></animate>
  </rect>
</g><g transform="rotate(327.27272727272725 50 50)">
  <rect x="46" y="27" rx="4" ry="6" width="8" height="12" fill="#1d0303">
    <animate attributeName="opacity" values="1;0" keyTimes="0;1" dur="1.1627906976744187s" begin="-0.07047216349541931s" repeatCount="indefinite"></animate>
  </rect>
</g><g transform="rotate(338.1818181818182 50 50)">
  <rect x="46" y="27" rx="4" ry="6" width="8" height="12" fill="#56210b">
    <animate attributeName="opacity" values="1;0" keyTimes="0;1" dur="1.1627906976744187s" begin="-0.035236081747709654s" repeatCount="indefinite"></animate>
  </rect>
</g><g transform="rotate(349.09090909090907 50 50)">
  <rect x="46" y="27" rx="4" ry="6" width="8" height="12" fill="#d6750b">
    <animate attributeName="opacity" values="1;0" keyTimes="0;1" dur="1.1627906976744187s" begin="0s" repeatCount="indefinite"></animate>
  </rect>
</g>
<!-- [ldio] generated by https://loading.io/ --></svg>